<svg width="23" height="24" viewBox="0 0 23 24" fill="none" xmlns="http://www.w3.org/2000/svg">
<path d="M15.8125 0.5H7.1875C3.21856 0.5 0 3.71856 0 7.6875V16.3125C0 20.2814 3.21856 23.5 7.1875 23.5H15.8125C19.7814 23.5 23 20.2814 23 16.3125V7.6875C23 3.71856 19.7814 0.5 15.8125 0.5ZM20.8438 16.3125C20.8438 19.0869 18.5869 21.3438 15.8125 21.3438H7.1875C4.41313 21.3438 2.15625 19.0869 2.15625 16.3125V7.6875C2.15625 4.91313 4.41313 2.65625 7.1875 2.65625H15.8125C18.5869 2.65625 20.8438 4.91313 20.8438 7.6875V16.3125Z" fill="#E3E5EA"/>
<path d="M11.5 6.25C8.32456 6.25 5.75 8.82456 5.75 12C5.75 15.1754 8.32456 17.75 11.5 17.75C14.6754 17.75 17.25 15.1754 17.25 12C17.25 8.82456 14.6754 6.25 11.5 6.25ZM11.5 15.5938C9.51912 15.5938 7.90625 13.9809 7.90625 12C7.90625 10.0177 9.51912 8.40625 11.5 8.40625C13.4809 8.40625 15.0938 10.0177 15.0938 12C15.0938 13.9809 13.4809 15.5938 11.5 15.5938Z" fill="#E3E5EA"/>
<path d="M17.6812 6.58492C18.1044 6.58492 18.4474 6.24189 18.4474 5.81874C18.4474 5.39558 18.1044 5.05255 17.6812 5.05255C17.2581 5.05255 16.915 5.39558 16.915 5.81874C16.915 6.24189 17.2581 6.58492 17.6812 6.58492Z" fill="#E3E5EA"/>
</svg>
