<svg width="23" height="24" viewBox="0 0 23 24" fill="none" xmlns="http://www.w3.org/2000/svg">
<path d="M23 4.86856C22.1447 5.24375 21.2333 5.49244 20.2831 5.61319C21.2606 5.02956 22.0067 4.11244 22.3574 3.007C21.4461 3.55037 20.4398 3.93419 19.3674 4.14838C18.5021 3.22694 17.2687 2.65625 15.9232 2.65625C13.3127 2.65625 11.2111 4.77513 11.2111 7.37269C11.2111 7.74644 11.2427 8.10581 11.3203 8.44794C7.40025 8.25675 3.93156 6.37794 1.60137 3.51588C1.19456 4.22169 0.955938 5.02956 0.955938 5.89925C0.955938 7.53225 1.79688 8.97981 3.05037 9.81787C2.29281 9.8035 1.54962 9.58356 0.92 9.23712C0.92 9.2515 0.92 9.27019 0.92 9.28887C0.92 11.5802 2.55444 13.4835 4.69775 13.9219C4.31394 14.0269 3.89562 14.0772 3.4615 14.0772C3.15963 14.0772 2.85487 14.0599 2.56881 13.9967C3.17975 15.864 4.91338 17.2368 6.97475 17.2814C5.3705 18.5363 3.33356 19.2924 1.12844 19.2924C0.74175 19.2924 0.370875 19.2752 0 19.2277C2.08869 20.5747 4.56406 21.3438 7.2335 21.3438C15.9102 21.3438 20.654 14.1562 20.654 7.92613C20.654 7.71769 20.6468 7.51644 20.6367 7.31663C21.5726 6.6525 22.3589 5.82306 23 4.86856Z" fill="#E3E5EA"/>
</svg>
