<svg width="170" height="38" viewBox="0 0 170 38" fill="none" xmlns="http://www.w3.org/2000/svg">
<path d="M20.8262 37.4959L21.9561 37.4828C22.1208 37.4804 22.2835 37.4454 22.4346 37.38C22.5858 37.3145 22.7226 37.2197 22.837 37.1012C22.9515 36.9827 23.0414 36.8427 23.1016 36.6893C23.1617 36.536 23.191 36.3722 23.1877 36.2075C23.1374 32.7999 23.0863 29.3924 23.0345 25.9849C23.0348 25.9542 23.0429 25.924 23.0582 25.8973C23.0734 25.8707 23.0953 25.8484 23.1216 25.8325C23.148 25.8167 23.178 25.808 23.2087 25.8071C23.2394 25.8062 23.2698 25.8132 23.2971 25.8274L32.1885 30.3896C32.4677 30.5331 32.7906 30.5663 33.0932 30.4826C33.3957 30.3989 33.6557 30.2044 33.8215 29.9379L34.1912 29.3439C34.2816 29.199 34.3414 29.0371 34.3668 28.8682C34.3922 28.6993 34.3828 28.5269 34.339 28.3618C34.2952 28.1967 34.2181 28.0423 34.1123 27.9082C34.0066 27.774 33.8745 27.6629 33.7241 27.5818L23.5683 22.0976C22.0611 21.2915 19.3671 22.9442 19.3682 24.6483C19.4316 28.5225 19.4954 32.3967 19.5596 36.2709C19.5662 36.601 19.7031 36.915 19.9404 37.1445C20.1777 37.374 20.4961 37.5003 20.8262 37.4959Z" fill="#444444"/>
<path d="M3.09977 30.0185L3.64667 31.0095C3.80642 31.2996 4.07471 31.5146 4.39272 31.6073C4.71072 31.7 5.0525 31.6628 5.34313 31.5039L14.298 26.5709C14.3251 26.556 14.3556 26.5483 14.3865 26.5487C14.4174 26.5491 14.4477 26.5574 14.4744 26.5729C14.5012 26.5884 14.5235 26.6106 14.5391 26.6373C14.5548 26.6639 14.5633 26.6942 14.5638 26.7251L14.7081 36.7191C14.7129 37.0329 14.8354 37.3334 15.0514 37.5611C15.2674 37.7889 15.561 37.9271 15.8741 37.9485L16.5709 37.9966C16.7415 38.0083 16.9128 37.9848 17.0741 37.9277C17.2353 37.8707 17.3832 37.7812 17.5085 37.6647C17.6339 37.5483 17.734 37.4074 17.8028 37.2508C17.8716 37.0942 17.9076 36.9251 17.9086 36.7541C17.9363 32.9046 17.9633 29.0556 17.9895 25.2069C17.9895 23.4984 15.2704 21.8938 13.7653 22.6912L3.59307 28.3144C3.44848 28.3936 3.32096 28.5006 3.21785 28.6292C3.11474 28.7578 3.03806 28.9056 2.99222 29.0639C2.94638 29.2223 2.93228 29.3881 2.95074 29.5519C2.9692 29.7158 3.01984 29.8743 3.09977 30.0185Z" fill="#444444"/>
<path d="M1.33526 11.4569L0.700863 12.391C0.608202 12.5271 0.543343 12.6802 0.510011 12.8415C0.476678 13.0027 0.475529 13.169 0.506629 13.3307C0.537729 13.4924 0.600465 13.6463 0.691235 13.7837C0.782005 13.9211 0.899021 14.0392 1.03556 14.1312L9.50914 19.8517C9.53458 19.8693 9.5551 19.893 9.56874 19.9207C9.58237 19.9484 9.58867 19.9792 9.58702 20.01C9.58537 20.0409 9.57584 20.0708 9.55933 20.0969C9.54282 20.123 9.5199 20.1444 9.49274 20.1591L0.664768 24.8438C0.387394 24.9908 0.175472 25.2368 0.0711099 25.5328C-0.033252 25.8289 -0.0224154 26.1534 0.101467 26.4418L0.376008 27.085C0.443433 27.2419 0.542228 27.3833 0.66632 27.5006C0.790412 27.6179 0.93718 27.7086 1.0976 27.7671C1.25803 27.8256 1.42872 27.8506 1.59919 27.8407C1.76966 27.8308 1.9363 27.7862 2.08888 27.7095L12.4033 22.5162C13.9259 21.7407 14.1118 18.5862 12.7129 17.6117L3.06892 11.1211C2.79428 10.9365 2.45766 10.8681 2.13275 10.931C1.80784 10.994 1.52109 11.1831 1.33526 11.4569Z" fill="#FD5B08"/>
<path d="M16.6699 0.402823L15.5411 0.375478C15.3766 0.371555 15.2128 0.400113 15.0593 0.45952C14.9058 0.518927 14.7655 0.608017 14.6464 0.721694C14.5274 0.83537 14.4319 0.971404 14.3654 1.12201C14.299 1.27262 14.2629 1.43485 14.2592 1.59943C14.1863 5.00622 14.1134 8.41337 14.0405 11.8209C14.0399 11.8519 14.0312 11.8822 14.0155 11.9088C13.9997 11.9355 13.9773 11.9576 13.9504 11.973C13.9235 11.9885 13.8931 11.9966 13.8621 11.9968C13.8311 11.997 13.8006 11.9891 13.7736 11.974L5.05389 7.09134C4.78014 6.93778 4.45865 6.8928 4.15328 6.96535C3.8479 7.03789 3.58098 7.22265 3.40555 7.48292L3.01397 8.06263C2.91839 8.20422 2.85282 8.36389 2.82129 8.5318C2.78977 8.6997 2.79296 8.87229 2.83067 9.03891C2.86838 9.20553 2.93981 9.36267 3.04056 9.50064C3.14131 9.63861 3.26925 9.75448 3.41649 9.84113L13.37 15.6973C14.8466 16.557 17.5985 15.0038 17.6598 13.3008C17.7371 9.42658 17.8144 5.55274 17.8917 1.67927C17.8984 1.34813 17.7736 1.02782 17.5446 0.788552C17.3156 0.549282 17.001 0.410571 16.6699 0.402823Z" fill="#FD5B08"/>
<path d="M33.5975 8.02929L33.0582 7.03613C32.9796 6.89157 32.8732 6.76393 32.7452 6.6605C32.6172 6.55708 32.47 6.4799 32.3122 6.43337C32.1543 6.38685 31.9888 6.37189 31.8252 6.38936C31.6616 6.40683 31.503 6.45638 31.3585 6.53517L22.3894 11.4397C22.3623 11.4544 22.3318 11.4618 22.301 11.4613C22.2701 11.4608 22.2399 11.4523 22.2133 11.4367C22.1867 11.421 22.1646 11.3988 22.149 11.3721C22.1335 11.3455 22.1251 11.3153 22.1247 11.2844L22.0153 1.29046C22.0114 0.975963 21.8893 0.674459 21.6733 0.445869C21.4573 0.217278 21.1631 0.0783377 20.8494 0.0566619L20.1515 0.00306623C19.9811 -0.00888688 19.81 0.0141888 19.6488 0.0708711C19.4877 0.127553 19.3398 0.216642 19.2144 0.332645C19.0889 0.448649 18.9886 0.58911 18.9195 0.745373C18.8504 0.901636 18.8141 1.07039 18.8127 1.24124L18.6924 12.7884C18.6826 14.4969 21.4006 16.1091 22.9079 15.3139L33.0998 9.72357C33.3899 9.56438 33.6052 9.29672 33.6985 8.97919C33.7918 8.66166 33.7554 8.3201 33.5975 8.02929Z" fill="#FCBE00"/>
<path d="M35.7359 26.4586L36.3134 25.4884C36.3973 25.3468 36.4523 25.1901 36.4754 25.0271C36.4985 24.8642 36.4892 24.6983 36.4481 24.5389C36.4069 24.3796 36.3347 24.2299 36.2356 24.0986C36.1365 23.9672 36.0124 23.8567 35.8704 23.7734L27.0512 18.5976C27.0247 18.5816 27.0028 18.5591 26.9876 18.5322C26.9724 18.5052 26.9644 18.4748 26.9644 18.4439C26.9644 18.413 26.9724 18.3826 26.9876 18.3556C27.0028 18.3287 27.0247 18.3062 27.0512 18.2902L35.5675 13.0608C35.835 12.8965 36.0309 12.6375 36.1164 12.3355C36.2019 12.0334 36.1707 11.7102 36.029 11.43L35.714 10.8065C35.6371 10.6538 35.5296 10.5186 35.3983 10.409C35.2671 10.2995 35.1147 10.218 34.9507 10.1696C34.7867 10.1213 34.6146 10.107 34.4449 10.1277C34.2751 10.1485 34.1115 10.2038 33.964 10.2903L23.9974 16.1201C22.5262 16.9897 22.5393 20.1508 23.9974 21.0356L34.0296 26.9071C34.3156 27.0729 34.6555 27.1188 34.9752 27.0347C35.2949 26.9507 35.5684 26.7436 35.7359 26.4586Z" fill="#FCBE00"/>
<path d="M60.9177 4.77792L57.3028 19.1941H57.1299L53.3597 4.77792H50.4349L46.6657 19.1853H46.4928L42.8691 4.77792H39.917L45.0764 23.3811H47.9104L51.8251 9.44731H51.9705L55.8852 23.3811H58.7105L63.8786 4.77792H60.9177Z" fill="#444444"/>
<path d="M74.1586 10.1457C73.1836 9.54634 72.0421 9.24664 70.7339 9.24664C69.4257 9.24664 68.2849 9.54634 67.3114 10.1457C66.3294 10.7541 65.5416 11.6303 65.0407 12.6713C64.5019 13.7549 64.2324 15.0204 64.2324 16.4678C64.2324 17.9153 64.5019 19.175 65.0407 20.2469C65.5436 21.2839 66.3311 22.1565 67.3114 22.7626C68.2871 23.362 69.4286 23.6617 70.7361 23.6617C72.0435 23.6617 73.1844 23.3624 74.1586 22.7637C75.1388 22.1576 75.9264 21.285 76.4293 20.248C76.9689 19.1702 77.2383 17.9105 77.2376 16.4689C77.2368 15.0273 76.9674 13.7618 76.4293 12.6724C75.9286 11.631 75.1408 10.7544 74.1586 10.1457ZM74.0929 18.9245C73.8542 19.6248 73.4246 20.2446 72.8526 20.7139C72.2962 21.1624 71.594 21.3862 70.7459 21.3855C69.8979 21.3848 69.1906 21.1609 68.624 20.7139C68.0488 20.2462 67.6167 19.6261 67.3771 18.9245C66.8367 17.3283 66.8367 15.5986 67.3771 14.0024C67.6161 13.2974 68.0467 12.6729 68.6207 12.1988C69.1807 11.7445 69.888 11.5173 70.7427 11.5173C71.5973 11.5173 72.2995 11.7445 72.8493 12.1988C73.4225 12.6736 73.853 13.2979 74.0929 14.0024C74.6318 15.5989 74.6318 17.3281 74.0929 18.9245Z" fill="#444444"/>
<path d="M86.5783 9.2191C85.8001 9.20908 85.0372 9.43565 84.3907 9.86881C83.7532 10.2914 83.2778 10.9176 83.0421 11.6451H82.8966V9.42801H80.2715V23.3804H82.9874V14.8609C82.9776 14.2996 83.124 13.7467 83.4103 13.2639C83.6965 12.781 84.1113 12.3872 84.6084 12.1264C85.1362 11.8496 85.7253 11.7105 86.3212 11.7217C86.6008 11.7218 86.8801 11.7415 87.1569 11.7808C87.3524 11.8062 87.5463 11.8427 87.7377 11.8901V9.28254C87.6042 9.26504 87.4216 9.24973 87.1908 9.23769C86.96 9.22566 86.7478 9.2191 86.5783 9.2191Z" fill="#444444"/>
<path d="M101.856 9.42871H98.6046L93.0449 15.333H92.8087V4.77792H90.0928V23.3811H92.8087V18.4306L94.1584 17.082L98.9043 23.3811H102.238L96.2081 15.4172L101.856 9.42871Z" fill="#444444"/>
<path d="M104.546 23.3811H107.353V15.2695H115.256V12.8632H107.353V7.1941H116.083V4.77792H104.546V23.3811Z" fill="#444444"/>
<path d="M127.599 10.1457C126.625 9.54634 125.483 9.24664 124.174 9.24664C122.865 9.24664 121.725 9.54634 120.754 10.1457C119.771 10.7537 118.983 11.63 118.482 12.6713C117.944 13.7549 117.675 15.0204 117.674 16.4678C117.673 17.9153 117.943 19.175 118.482 20.2469C118.985 21.2842 119.773 22.1569 120.754 22.7626C121.729 23.362 122.87 23.6617 124.178 23.6617C125.485 23.6617 126.626 23.362 127.602 22.7626C128.583 22.1571 129.371 21.2844 129.873 20.2469C130.412 19.1691 130.682 17.9094 130.682 16.4678C130.682 15.0262 130.412 13.7607 129.873 12.6713C129.372 11.6294 128.583 10.753 127.599 10.1457ZM127.535 18.9245C127.297 19.625 126.867 20.2449 126.295 20.7139C125.739 21.1624 125.036 21.3862 124.188 21.3855C123.34 21.3848 122.633 21.1598 122.066 20.7106C121.491 20.2442 121.059 19.6252 120.818 18.9245C120.278 17.3283 120.278 15.5986 120.818 14.0024C121.058 13.2967 121.491 12.6721 122.066 12.1988C122.627 11.7445 123.333 11.5173 124.187 11.5173C125.041 11.5173 125.743 11.7445 126.294 12.1988C126.867 12.6736 127.296 13.2979 127.535 14.0024C128.076 15.5986 128.076 17.3283 127.535 18.9245Z" fill="#444444"/>
<path d="M140.018 9.21917C139.238 9.20802 138.472 9.43463 137.824 9.86888C137.186 10.2915 136.711 10.9176 136.475 11.6452H136.33V9.42809H133.705V23.3805H136.42V14.8609C136.411 14.2998 136.558 13.7472 136.844 13.2644C137.13 12.7817 137.545 12.3878 138.041 12.1265C138.569 11.8497 139.158 11.7105 139.754 11.7218C140.034 11.7219 140.313 11.7416 140.59 11.7808C140.786 11.8061 140.979 11.8426 141.171 11.8902V9.28261C141.037 9.26511 140.855 9.2498 140.624 9.23777C140.393 9.22574 140.186 9.21917 140.018 9.21917Z" fill="#444444"/>
<path d="M146.934 12.1308C147.516 11.7288 148.211 11.5206 148.918 11.5357C149.784 11.5357 150.477 11.772 150.996 12.2445C151.497 12.6889 151.845 13.2799 151.99 13.9333H154.634C154.556 13.0459 154.241 12.1958 153.721 11.4723C153.201 10.763 152.509 10.1982 151.709 9.83162C150.82 9.42841 149.852 9.22815 148.875 9.24534C147.563 9.24534 146.421 9.55124 145.451 10.163C144.474 10.7825 143.693 11.6657 143.198 12.7105C142.664 13.7977 142.398 15.0497 142.398 16.4665C142.398 17.8659 142.659 19.1073 143.18 20.1909C143.667 21.2371 144.444 22.1216 145.419 22.7394C146.39 23.3541 147.552 23.6615 148.903 23.6615C150.005 23.6615 150.966 23.4584 151.786 23.0522C152.575 22.6743 153.254 22.0985 153.755 21.3809C154.249 20.6632 154.552 19.8318 154.636 18.9648H151.993C151.893 19.4353 151.687 19.8766 151.389 20.2543C151.105 20.6092 150.741 20.8912 150.326 21.0769C149.776 21.3107 149.177 21.4037 148.582 21.3474C147.987 21.291 147.416 21.0872 146.92 20.7542C146.329 20.3174 145.874 19.7224 145.607 19.038C145.299 18.2986 145.144 17.4203 145.143 16.4031C145.143 15.4099 145.301 14.5488 145.616 13.8196C145.888 13.1441 146.345 12.5588 146.934 12.1308Z" fill="#444444"/>
<path d="M169.547 16.2589C169.547 14.9938 169.378 13.9175 169.039 13.0301C168.744 12.2124 168.269 11.4717 167.649 10.8633C167.08 10.3181 166.402 9.9001 165.66 9.63713C164.925 9.37755 164.151 9.24548 163.371 9.24665C162.075 9.24665 160.945 9.55255 159.98 10.1643C159.004 10.7868 158.223 11.6716 157.727 12.7172C157.191 13.8067 156.923 15.066 156.923 16.4952C156.923 17.9434 157.191 19.2045 157.727 20.2786C158.23 21.3171 159.025 22.1855 160.016 22.7768C161.006 23.3675 162.189 23.6628 163.563 23.6628C164.491 23.6783 165.414 23.5195 166.283 23.1946C167.037 22.9127 167.717 22.464 168.273 21.8821C168.8 21.322 169.179 20.6398 169.377 19.8969L166.806 19.4342C166.655 19.8474 166.413 20.2212 166.098 20.528C165.785 20.8268 165.412 21.0544 165.004 21.1952C164.55 21.3473 164.074 21.4213 163.596 21.414C162.87 21.4304 162.153 21.2533 161.518 20.901C160.918 20.5512 160.436 20.0312 160.133 19.4069C159.826 18.7987 159.664 18.0681 159.642 17.2193H169.557L169.547 16.2589ZM159.635 15.187C159.665 14.5998 159.819 14.0255 160.087 13.5026C160.389 12.911 160.842 12.4096 161.4 12.0489C161.994 11.6686 162.688 11.474 163.393 11.49C164.039 11.4749 164.677 11.6421 165.232 11.9724C165.753 12.2891 166.175 12.7433 166.454 13.2849C166.754 13.8735 166.904 14.5267 166.892 15.187H159.635Z" fill="#444444"/>
<path d="M44.7428 27.2888L42.4043 33.9292H43.6884L44.2353 32.2885H46.7324L47.2793 33.9292H48.5645L46.2227 27.2888H44.7428ZM44.5612 31.326L45.4592 28.6506H45.5107L46.4098 31.326H44.5612Z" fill="#444444"/>
<path d="M53.0977 33.9292H54.2997V31.1083H57.0594V30.0998H54.2997V28.2973H57.3514V27.2888H53.0977V33.9292Z" fill="#444444"/>
<path d="M65.8615 31.2443C66.1943 31.0904 66.4719 30.8381 66.6567 30.5213C66.8438 30.183 66.9374 29.8009 66.9279 29.4144C66.9365 29.026 66.8441 28.6419 66.66 28.2998C66.4784 27.9782 66.2039 27.7189 65.8724 27.5561C65.4707 27.367 65.0299 27.2759 64.5861 27.2903H62.0967V33.9307H63.2998V31.5046H64.5249L65.8298 33.9361H67.1719L65.7368 31.3001C65.7784 31.2826 65.8199 31.264 65.8615 31.2443ZM63.2988 28.2911H64.4013C64.6532 28.2819 64.9042 28.3267 65.1374 28.4223C65.3173 28.4999 65.4668 28.6344 65.5629 28.8052C65.6603 28.9916 65.7081 29.1998 65.7018 29.41C65.7085 29.617 65.661 29.8221 65.564 30.005C65.4668 30.1702 65.3181 30.299 65.1407 30.3715C64.9074 30.4624 64.6581 30.5048 64.4079 30.4962H63.2988V28.2911Z" fill="#444444"/>
<path d="M72.8926 27.2888H71.6895V33.9303H72.8926V27.2888Z" fill="#444444"/>
<path d="M79.7846 28.5508C80.0712 28.3684 80.4052 28.2744 80.7449 28.2806C80.9377 28.279 81.1295 28.307 81.3137 28.3638C81.4843 28.4159 81.644 28.4985 81.7851 28.6077C81.9244 28.7163 82.0423 28.8498 82.133 29.0014C82.2285 29.1651 82.293 29.3449 82.3233 29.5319H83.5363C83.4942 29.1867 83.3869 28.8527 83.2202 28.5475C83.0653 28.2653 82.8565 28.0163 82.6055 27.8147C82.3527 27.6122 82.0651 27.4576 81.7567 27.3586C81.4233 27.2525 81.0751 27.2001 80.7253 27.2033C80.1793 27.1943 79.6412 27.3342 79.1688 27.608C78.704 27.8845 78.3274 28.2873 78.0827 28.7696C77.8206 29.3462 77.6851 29.9722 77.6851 30.6055C77.6851 31.2388 77.8206 31.8648 78.0827 32.4414C78.3236 32.9278 78.6995 33.3345 79.1655 33.6129C79.638 33.8868 80.1759 34.0275 80.722 34.0197C81.0893 34.0243 81.4547 33.9647 81.8015 33.8436C82.1129 33.7332 82.4011 33.566 82.6514 33.3503C83.1315 32.9348 83.4447 32.3593 83.533 31.7304L82.3233 31.7228C82.2909 31.9072 82.2233 32.0836 82.1242 32.2423C82.0307 32.3903 81.911 32.5201 81.7709 32.6252C81.6287 32.7296 81.4696 32.8087 81.3006 32.8592C81.1193 32.9137 80.9309 32.9406 80.7417 32.9391C80.4046 32.945 80.073 32.8535 79.7868 32.6755C79.4958 32.4837 79.2675 32.2106 79.1305 31.8901C78.8141 31.069 78.8141 30.1595 79.1305 29.3383C79.2684 29.0185 79.4955 28.7451 79.7846 28.5508Z" fill="#444444"/>
<path d="M90.1178 27.2888L87.7793 33.9292H89.0634L89.6103 32.2885H92.1074L92.6543 33.9292H93.9384L91.5977 27.2888H90.1178ZM89.9373 31.326L90.8342 28.6506H90.8857L91.7848 31.326H89.9373Z" fill="#444444"/>
</svg>
